<?xml version="1.0" encoding="utf-8"?>
<!-- Generator: Adobe Illustrator 19.1.0, SVG Export Plug-In . SVG Version: 6.00 Build 0)  -->
<svg version="1.0" id="Layer_1" xmlns="http://www.w3.org/2000/svg" xmlns:xlink="http://www.w3.org/1999/xlink" x="0px" y="0px"
	 viewBox="0 0 473 121.4" style="enable-background:new 0 0 473 121.4;" xml:space="preserve">
<style type="text/css">
	.st0{fill:#EC2227;}
	.st1{fill:#8A181A;}
	.st2{fill:#C32126;}
</style>
<g>
	<path class="st0" d="M168.1,74.6v-5.1h5.1c1.9,0,3.2-0.3,3.9-0.9c0.7-0.6,1-2,1-4V15.7c0-2.1-0.3-3.4-1-4.1c-0.7-0.6-2-1-3.9-1
		h-5.1v-5h59.8l0.6,23.6h-4.6c-1.9-6.7-4.7-11.5-8.2-14.4c-3.6-2.8-8.6-4.2-15.2-4.2c-2.2,0-3.6,0.3-4.3,0.9c-0.7,0.6-1,2-1,4.1
		v20.2h11c10.1,0,17.7,1.7,22.8,5.1c5.1,3.4,7.7,8.5,7.7,15.3c0,6-2.5,10.5-7.4,13.7c-4.9,3.1-12.1,4.7-21.6,4.7H168.1z M195.2,41.2
		v21.5c0,3,0.4,4.8,1.2,5.6c0.8,0.8,2.9,1.2,6.1,1.2c6.1,0,10.3-1.1,12.7-3.3c2.4-2.2,3.6-5.9,3.6-11.1c0-4.8-1.3-8.3-4-10.5
		c-2.7-2.2-7-3.3-13-3.3H195.2z"/>
	<path class="st0" d="M289.2,63.6v0.3c0,1.4,0.3,2.4,0.8,3c0.5,0.6,1.4,0.9,2.6,0.9c0.6,0,1.2-0.2,1.9-0.5c0.7-0.3,1.1-0.5,1.4-0.5
		c0.4,0,0.7,0.1,0.9,0.4c0.2,0.2,0.3,0.6,0.3,1.1c0,2-1.1,3.7-3.4,5.3c-2.3,1.6-5,2.4-8.2,2.4c-2.4,0-4.4-0.6-6.1-1.8
		c-1.7-1.2-2.7-2.8-2.9-4.8c-2.5,2.1-5.4,3.8-8.8,5c-3.4,1.2-6.8,1.8-10.3,1.8c-4.5,0-8.1-1-10.6-3c-2.5-2-3.8-4.8-3.8-8.4
		c0-4.8,2.5-8.7,7.5-11.6c5-2.9,13-5.1,24-6.5v-5.2c0-3.4-0.7-5.7-2-7.1c-1.3-1.4-3.6-2.1-6.7-2.1c-2,0-3.7,0.3-5.1,1
		c-1.4,0.7-2.1,1.4-2.1,2.3c0,0.3,0.4,0.9,1.2,1.9c0.8,1,1.2,2.2,1.2,3.5c0,1.8-0.7,3.3-2.1,4.4c-1.4,1.1-3.3,1.6-5.5,1.6
		c-2.4,0-4.3-0.7-5.8-2c-1.5-1.4-2.2-3.2-2.2-5.4c0-3.8,1.9-6.7,5.8-8.9c3.9-2.2,9.2-3.2,16-3.2c3.9,0,7.4,0.4,10.4,1.2
		c3,0.8,5.4,2,7.4,3.5c1.5,1.2,2.6,2.5,3.2,4c0.6,1.5,0.9,3.8,0.9,7V63.6z M274.4,51.5c-5.7,1-9.8,2.3-12.1,4.1
		c-2.4,1.7-3.5,4.2-3.5,7.4c0,1.9,0.5,3.5,1.6,4.6c1.1,1.2,2.5,1.7,4.3,1.7c2.6,0,4.9-1,6.8-3.1c1.9-2.1,2.9-4.6,2.9-7.7V57V51.5z"
		/>
	<path class="st0" d="M369.6,5.7v5h-4.9c-1.9,0-3.1,0.3-3.8,0.9c-0.7,0.6-1,2-1,4.1v53.8h9.6V96h-4.7c-1.7-8.1-4.4-13.7-7.9-16.8
		c-3.5-3.1-9.2-4.7-16.9-4.7h-12.6c-7.8,0-13.4,1.6-16.9,4.7c-3.5,3.1-6.2,8.7-7.9,16.8h-4.7V69.5h9.5c3.7-5.8,6.5-13.1,8.6-21.7
		c2.1-8.7,3.1-17.8,3.1-27.4c0-4.2-0.5-6.8-1.4-8c-0.9-1.2-2.7-1.7-5.5-1.7h-3.3v-5H369.6z M326.1,10.6c-0.3,13.8-1.4,25.3-3.2,34.8
		c-1.8,9.4-4.5,17.4-8.2,24.1h28.1V10.6H326.1z"/>
	<path class="st0" d="M388.2,13.3v45.2c0,4,0.8,6.9,2.4,8.5c1.6,1.6,4.4,2.5,8.4,2.5v5h-27.5v-5c3.8-0.2,6.5-1.1,7.9-2.6
		c1.5-1.6,2.2-4.6,2.2-9.1v-0.5V15.8c0-2.1-0.3-3.5-1-4.1c-0.7-0.7-1.9-1-3.7-1h-4.8v-5h30.8l14.9,41.2l14.1-41.2h30.2v5h-4.8
		c-1.9,0-3.1,0.3-3.8,1c-0.7,0.6-1,2-1,4.1v48.9c0,2.1,0.3,3.4,1,4s2,0.9,3.8,0.9h4.8v5.1h-35.6v-5.1h4.3c1.9,0,3.2-0.3,3.9-0.9
		c0.7-0.6,1-2,1-4V12.9L415,74.6h-4.8L388.2,13.3z"/>
	<polygon class="st1" points="137.8,94 111.4,84.5 13.9,91.4 42.7,103.7 	"/>
	<polygon class="st1" points="22.7,77.1 47.3,87.3 127.2,79.3 104.7,71.5 	"/>
	<polygon class="st1" points="31.5,62.8 51.9,71 116.7,64.5 97.9,58.5 	"/>
	<polygon class="st1" points="40.3,48.5 56.5,54.7 106.1,49.8 91.2,45.5 	"/>
	<polygon class="st1" points="49.1,34.2 61.1,38.3 95.6,35.1 84.5,32.5 	"/>
	<polygon class="st1" points="58,19.9 65.7,22 85,20.4 77.7,19.5 	"/>
	<path class="st0" d="M107.5,44.6"/>
	<polygon class="st0" points="50.6,29.3 50.6,29.3 50.8,28.9 	"/>
	<polygon class="st0" points="137.8,94 42.7,103.6 38.8,116.4 145.9,105.3 	"/>
	<polygon class="st0" points="47.3,87.3 43.5,99.7 135.1,90.3 127.2,79.3 	"/>
	<polygon class="st0" points="51.9,71 48.2,83.1 124.3,75.3 116.7,64.5 	"/>
	<polygon class="st0" points="56.5,54.6 52.9,66.5 113.6,60.3 106.1,49.8 	"/>
	<polygon class="st0" points="61.1,38.3 57.6,49.8 102.8,45.3 95.6,35.1 	"/>
	<polygon class="st0" points="65.7,22 62.3,33.2 92,30.3 85,20.4 	"/>
	<polygon class="st0" points="70.3,5.7 67,16.6 81.2,15.4 74.5,5.7 	"/>
	<polygon class="st2" points="13.9,91.4 7.1,101.6 38.8,116.4 42.7,103.7 	"/>
	<polygon class="st2" points="22.7,77.1 16.1,87.2 43.5,99.7 47.3,87.3 	"/>
	<polygon class="st2" points="31.5,62.8 25.1,72.8 48.2,83.1 51.9,71 	"/>
	<polygon class="st2" points="40.3,48.5 34,58.5 52.9,66.5 56.5,54.7 	"/>
	<polygon class="st2" points="49.1,34.2 43,44.2 57.6,49.8 61.1,38.3 	"/>
	<polygon class="st2" points="58,19.9 51.9,29.8 62.3,33.2 65.7,22 	"/>
	<polygon class="st2" points="66.8,5.7 60.9,15.4 67,16.6 70.3,5.7 	"/>
	<path class="st0" d="M182.9,108.9l0.8,0.4c-0.4,1-1,1.8-1.8,2.4c-0.8,0.6-1.8,0.9-2.9,0.9c-1.5,0-2.7-0.4-3.6-1.3
		c-0.9-0.8-1.3-2-1.3-3.4c0-1.5,0.5-2.8,1.5-3.8c1-1,2.4-1.5,4.1-1.5c1.2,0,2.2,0.2,2.8,0.7c0.6,0.5,1,1.1,1,1.8
		c0,0.5-0.1,0.9-0.4,1.2c-0.3,0.3-0.7,0.4-1.1,0.4c-0.4,0-0.7-0.1-1-0.3c-0.2-0.2-0.4-0.5-0.4-0.9c0-0.3,0.1-0.7,0.4-1.1
		c0.1-0.2,0.2-0.3,0.2-0.4c0-0.1-0.1-0.2-0.3-0.3c-0.3-0.2-0.7-0.2-1.1-0.2c-0.9,0-1.5,0.3-1.9,0.8c-0.5,0.7-0.8,1.8-0.8,3.3
		c0,1.5,0.3,2.5,0.8,3.1c0.5,0.6,1.2,0.9,2,0.9c0.6,0,1.2-0.2,1.8-0.6C182.1,110.4,182.5,109.7,182.9,108.9"/>
	<path class="st0" d="M200,107.7h-6.4c0,1.3,0.3,2.2,0.8,2.8c0.5,0.6,1.1,0.9,1.9,0.9c0.6,0,1.1-0.2,1.6-0.5c0.5-0.3,1-0.9,1.5-1.7
		l0.7,0.4c-0.6,1-1.2,1.7-1.9,2.1c-0.7,0.4-1.6,0.6-2.6,0.6c-1.5,0-2.7-0.5-3.6-1.4c-0.9-0.9-1.4-2.1-1.4-3.5c0-1.4,0.5-2.6,1.4-3.6
		c0.9-1,2.1-1.4,3.4-1.4c0.9,0,1.7,0.2,2.4,0.6c0.7,0.4,1.2,0.9,1.6,1.7C199.8,105.5,200,106.5,200,107.7 M193.6,106.8h3
		c0.3,0,0.5-0.1,0.6-0.2c0.1-0.1,0.2-0.4,0.2-0.8c0-0.8-0.2-1.3-0.5-1.7c-0.3-0.4-0.8-0.6-1.3-0.6c-0.6,0-1.1,0.3-1.4,0.8
		C193.8,104.8,193.6,105.7,193.6,106.8"/>
	<path class="st0" d="M207.4,103.1l3.7-0.2c0.1,0.6,0.2,1.2,0.3,1.8c0.4-0.6,0.9-1.1,1.5-1.4c0.6-0.3,1.3-0.5,2-0.5
		c1.2,0,2.1,0.4,2.9,1.3c0.7,0.8,1.1,2,1.1,3.6c0,1.1-0.2,2-0.5,2.7c-0.4,0.7-0.8,1.3-1.5,1.7c-0.6,0.4-1.4,0.6-2.2,0.6
		c-0.7,0-1.3-0.2-1.8-0.5c-0.5-0.3-1-0.8-1.5-1.5v3.3c0,0.4,0,0.7,0.1,0.8c0.1,0.1,0.2,0.2,0.4,0.3c0.2,0.1,0.5,0.1,1.1,0.1v0.9
		h-5.5V115h0.3c0.3,0,0.6,0,0.7-0.1c0.1-0.1,0.2-0.2,0.3-0.3c0-0.1,0.1-0.4,0.1-0.8v-8.7c0-0.4,0-0.7-0.1-0.8
		c-0.1-0.1-0.2-0.2-0.3-0.3c-0.1-0.1-0.4-0.1-0.9-0.1V103.1z M213.7,104c-0.6,0-1.2,0.3-1.6,0.9c-0.4,0.6-0.7,1.5-0.7,2.7
		c0,1.2,0.2,2,0.7,2.7c0.5,0.6,1,0.9,1.6,0.9c0.6,0,1.1-0.3,1.4-0.8c0.5-0.7,0.7-1.6,0.7-2.8c0-1.1-0.2-2-0.6-2.6
		C214.9,104.4,214.3,104,213.7,104"/>
	<path class="st0" d="M226,112.2v-0.9h0.6c0.5,0,0.8-0.2,0.8-0.7v-6c0-0.4-0.3-0.7-0.8-0.7H226V103h5.9c0.9,0,1.6,0.1,2.1,0.2
		c0.5,0.1,0.9,0.4,1.3,0.8c0.3,0.4,0.5,0.8,0.5,1.3c0,0.6-0.3,1.1-0.8,1.5c-0.5,0.4-1.2,0.6-1.9,0.6c2,0.2,3,1,3,2.3
		c0,0.7-0.3,1.3-0.8,1.7c-0.5,0.4-1.6,0.7-3.3,0.7H226z M230,107.1h1c0.7,0,1.2-0.1,1.5-0.4c0.3-0.3,0.5-0.7,0.5-1.2
		c0-1-0.6-1.5-1.8-1.5h-0.5c-0.3,0-0.5,0.1-0.6,0.2c-0.1,0.1-0.2,0.3-0.2,0.6V107.1z M231.3,111.3c0.9,0,1.4-0.1,1.7-0.4
		c0.3-0.3,0.4-0.7,0.4-1.2c0-1.2-0.7-1.8-2.1-1.8H230v2.7c0,0.4,0.3,0.7,0.8,0.7H231.3z"/>
	<path class="st0" d="M243.4,103l4.1-0.2v7.8c0,0.2,0.1,0.4,0.2,0.5c0.1,0.1,0.3,0.2,0.6,0.2h0.6v0.9h-5.5v-0.9h0.6
		c0.3,0,0.6-0.1,0.7-0.2c0.1-0.1,0.2-0.4,0.2-0.8V105c0-0.3-0.1-0.6-0.3-0.8c-0.2-0.2-0.5-0.3-0.8-0.3h-0.4V103z M245.9,97.8
		c0.4,0,0.8,0.1,1.1,0.5c0.3,0.3,0.5,0.7,0.5,1.1c0,0.4-0.2,0.8-0.5,1.1c-0.3,0.3-0.7,0.5-1.1,0.5c-0.4,0-0.8-0.2-1.1-0.5
		c-0.3-0.3-0.5-0.7-0.5-1.1c0-0.4,0.1-0.8,0.5-1.1C245.1,97.9,245.5,97.8,245.9,97.8"/>
	<path class="st0" d="M265,108.9l0.8,0.4c-0.4,1-1,1.8-1.8,2.4c-0.8,0.6-1.8,0.9-2.9,0.9c-1.5,0-2.7-0.4-3.6-1.3
		c-0.9-0.8-1.3-2-1.3-3.4c0-1.5,0.5-2.8,1.5-3.8c1-1,2.4-1.5,4.1-1.5c1.2,0,2.2,0.2,2.8,0.7c0.6,0.5,1,1.1,1,1.8
		c0,0.5-0.1,0.9-0.4,1.2c-0.3,0.3-0.7,0.4-1.1,0.4c-0.4,0-0.7-0.1-1-0.3c-0.2-0.2-0.4-0.5-0.4-0.9c0-0.3,0.1-0.7,0.4-1.1
		c0.1-0.2,0.2-0.3,0.2-0.4c0-0.1-0.1-0.2-0.3-0.3c-0.3-0.2-0.7-0.2-1.1-0.2c-0.9,0-1.5,0.3-1.9,0.8c-0.5,0.7-0.8,1.8-0.8,3.3
		c0,1.5,0.3,2.5,0.8,3.1c0.5,0.6,1.2,0.9,2,0.9c0.6,0,1.2-0.2,1.8-0.6C264.1,110.4,264.6,109.7,265,108.9"/>
	<path class="st0" d="M276.4,106.9h4.1v-2.3c0-0.4-0.3-0.7-0.8-0.7h-0.6V103h5.4v0.9h-0.6c-0.5,0-0.8,0.2-0.8,0.7v6
		c0,0.4,0.3,0.7,0.8,0.7h0.6v0.9h-5.4v-0.9h0.6c0.5,0,0.8-0.2,0.8-0.7V108h-4.1v2.6c0,0.4,0.3,0.7,0.8,0.7h0.6v0.9h-5.4v-0.9h0.6
		c0.5,0,0.8-0.2,0.8-0.7v-6c0-0.4-0.3-0.7-0.8-0.7h-0.6V103h5.4v0.9h-0.6c-0.5,0-0.8,0.2-0.8,0.7V106.9z"/>
	<path class="st0" d="M302.3,111.1l0.4,0.7c-0.4,0.3-0.8,0.5-1.1,0.6c-0.3,0.1-0.7,0.2-1,0.2c-0.6,0-1-0.1-1.4-0.4
		c-0.3-0.2-0.7-0.7-0.9-1.3c-0.7,0.7-1.3,1.1-1.8,1.3c-0.5,0.2-1.1,0.4-1.8,0.4c-0.9,0-1.6-0.2-2.2-0.6c-0.5-0.4-0.8-1-0.8-1.6
		c0-1,0.5-1.8,1.4-2.4c0.8-0.5,2.4-0.9,5-1.4v-1.3c0-0.5-0.2-0.9-0.5-1.3c-0.3-0.3-0.8-0.5-1.4-0.5c-0.4,0-0.8,0.1-1.2,0.3
		c-0.2,0.1-0.3,0.3-0.3,0.4c0,0.1,0,0.2,0.1,0.3c0.2,0.3,0.3,0.6,0.3,0.9c0,0.4-0.1,0.7-0.4,0.9c-0.2,0.2-0.6,0.3-1,0.3
		c-0.4,0-0.8-0.1-1-0.4c-0.3-0.2-0.4-0.6-0.4-0.9c0-0.6,0.3-1.2,1-1.7c0.8-0.6,1.9-0.9,3.2-0.9c1,0,1.8,0.1,2.6,0.5
		c0.5,0.2,0.9,0.5,1.2,1c0.3,0.5,0.4,1.1,0.4,1.7v4.6c0,0.4,0.1,0.6,0.2,0.8c0.1,0.2,0.3,0.2,0.5,0.2
		C301.7,111.4,302,111.3,302.3,111.1 M298.2,107.3c-1.4,0.2-2.3,0.5-2.8,0.9c-0.5,0.4-0.7,0.9-0.7,1.6c0,0.5,0.1,0.8,0.3,1.1
		c0.2,0.2,0.6,0.4,1,0.4c0.6,0,1.2-0.2,1.6-0.7c0.4-0.5,0.6-1.1,0.6-1.9V107.3z"/>
	<path class="st0" d="M325.8,111.3v0.9h-5.4v-0.9h0.6c0.5,0,0.8-0.2,0.8-0.7v-6c0-0.4-0.3-0.7-0.8-0.7h-0.6V103h5.4v0.9h-0.6
		c-0.3,0-0.5,0.1-0.6,0.2c-0.1,0.1-0.2,0.4-0.2,0.7v2.3h1c0.7,0,1.2-0.1,1.4-0.4c0.2-0.2,0.4-0.7,0.6-1.6c0.2-0.9,0.5-1.6,0.9-1.9
		c0.4-0.3,0.8-0.5,1.3-0.5c0.6,0,1,0.2,1.4,0.5c0.3,0.3,0.5,0.7,0.5,1.2c0,0.4-0.1,0.7-0.3,1c-0.2,0.3-0.6,0.4-1,0.4
		c-0.4,0-0.7-0.1-0.9-0.3c-0.3-0.2-0.4-0.5-0.4-0.8c0-0.2,0.1-0.4,0.2-0.6c0.1-0.1,0.1-0.2,0.1-0.2c0-0.1,0-0.1-0.1-0.1
		c-0.1,0-0.3,0.1-0.4,0.3c-0.2,0.2-0.4,0.8-0.6,2c-0.1,0.5-0.2,0.8-0.4,1c-0.1,0.2-0.4,0.3-0.8,0.5c1.5,0.2,2.4,0.7,2.7,1.7l0.5,1.4
		c0.2,0.5,0.3,0.7,0.6,0.7c0.3,0,0.5-0.4,0.6-1.1h0.7c-0.2,1.1-0.5,1.7-1,1.9c-0.4,0.2-0.9,0.4-1.5,0.4c-1.1,0-1.8-0.5-2.1-1.6
		l-0.4-1.3c-0.3-1-0.9-1.5-1.9-1.5h-0.7v2.8c0,0.4,0.3,0.7,0.8,0.7H325.8z"/>
	<path class="st0" d="M343.7,102.5c1,0,2,0.2,2.8,0.7c0.9,0.4,1.5,1,1.9,1.7c0.4,0.7,0.6,1.6,0.6,2.6c0,1.6-0.5,2.8-1.6,3.7
		c-1.1,0.9-2.3,1.3-3.7,1.3c-1,0-1.9-0.2-2.7-0.7c-0.8-0.4-1.4-1-1.9-1.8c-0.4-0.7-0.7-1.6-0.7-2.5c0-1.4,0.5-2.6,1.5-3.6
		C341,103,342.2,102.5,343.7,102.5 M343.8,103.5c-0.7,0-1.2,0.3-1.6,0.9c-0.4,0.6-0.6,1.6-0.6,3.1c0,1.6,0.2,2.6,0.6,3.2
		c0.4,0.6,0.9,0.9,1.6,0.9c0.7,0,1.2-0.3,1.7-0.9c0.4-0.6,0.6-1.6,0.6-3.1c0-1.5-0.2-2.6-0.6-3.2C345,103.8,344.5,103.5,343.8,103.5
		"/>
	<path class="st0" d="M363.2,109.2l2.2-6.2h4.8v0.9h-0.6c-0.5,0-0.8,0.2-0.8,0.6v6c0,0.4,0.3,0.6,0.8,0.6h0.6v0.9h-5.4v-0.9h0.6
		c0.5,0,0.8-0.2,0.8-0.6v-7.1l-3.1,8.7h-1.4l-3.1-8.7v6.9c0,0.3,0.1,0.5,0.2,0.7c0.1,0.1,0.4,0.2,0.8,0.2h0.4v0.9h-3.9v-0.9h0.5
		c0.6,0,1-0.3,1-0.9v-5.3c0-0.4-0.1-0.7-0.2-0.9c-0.1-0.1-0.4-0.2-0.7-0.2h-0.7V103h5L363.2,109.2z"/>
	<path class="st0" d="M389.1,103v0.9h-0.6c-0.5,0-0.8,0.2-0.8,0.7v6c0,0.4,0.3,0.7,0.8,0.7h0.6v0.9h-5.4v-0.9h0.6
		c0.5,0,0.8-0.2,0.8-0.7v-6.5h-3.9v6.5c0,0.4,0.3,0.7,0.8,0.7h0.6v0.9h-5.4v-0.9h0.6c0.5,0,0.8-0.2,0.8-0.7v-6
		c0-0.4-0.3-0.7-0.8-0.7h-0.6V103H389.1z"/>
	<path class="st0" d="M406.8,111.1l0.4,0.7c-0.4,0.3-0.8,0.5-1.1,0.6c-0.3,0.1-0.7,0.2-1,0.2c-0.6,0-1-0.1-1.4-0.4
		c-0.3-0.2-0.7-0.7-0.9-1.3c-0.7,0.7-1.3,1.1-1.8,1.3c-0.5,0.2-1.1,0.4-1.8,0.4c-0.9,0-1.6-0.2-2.2-0.6c-0.5-0.4-0.8-1-0.8-1.6
		c0-1,0.5-1.8,1.4-2.4c0.8-0.5,2.4-0.9,5-1.4v-1.3c0-0.5-0.2-0.9-0.5-1.3c-0.3-0.3-0.8-0.5-1.4-0.5c-0.4,0-0.8,0.1-1.2,0.3
		c-0.2,0.1-0.3,0.3-0.3,0.4c0,0.1,0,0.2,0.1,0.3c0.2,0.3,0.3,0.6,0.3,0.9c0,0.4-0.1,0.7-0.4,0.9c-0.2,0.2-0.6,0.3-1,0.3
		c-0.4,0-0.8-0.1-1-0.4c-0.3-0.2-0.4-0.6-0.4-0.9c0-0.6,0.3-1.2,1-1.7c0.9-0.6,1.9-0.9,3.2-0.9c1,0,1.8,0.1,2.6,0.5
		c0.5,0.2,0.9,0.5,1.2,1c0.3,0.5,0.4,1.1,0.4,1.7v4.6c0,0.4,0.1,0.6,0.2,0.8c0.1,0.2,0.3,0.2,0.5,0.2
		C406.2,111.4,406.5,111.3,406.8,111.1 M402.7,107.3c-1.4,0.2-2.3,0.5-2.8,0.9c-0.5,0.4-0.7,0.9-0.7,1.6c0,0.5,0.1,0.8,0.3,1.1
		c0.2,0.2,0.6,0.4,1,0.4c0.6,0,1.2-0.2,1.6-0.7c0.4-0.5,0.6-1.1,0.6-1.9V107.3z"/>
	<path class="st0" d="M417.7,106.9h4.1v-2.3c0-0.4-0.3-0.7-0.8-0.7h-0.6V103h5.4v0.9h-0.6c-0.5,0-0.8,0.2-0.8,0.7v6
		c0,0.4,0.3,0.7,0.8,0.7h0.6v0.9h-5.4v-0.9h0.6c0.5,0,0.8-0.2,0.8-0.7V108h-4.1v2.6c0,0.4,0.3,0.7,0.8,0.7h0.6v0.9h-5.4v-0.9h0.6
		c0.5,0,0.8-0.2,0.8-0.7v-6c0-0.4-0.3-0.7-0.8-0.7h-0.6V103h5.4v0.9h-0.6c-0.5,0-0.8,0.2-0.8,0.7V106.9z"/>
	<path class="st0" d="M433.2,103l4.1-0.2v7.8c0,0.2,0.1,0.4,0.2,0.5c0.1,0.1,0.3,0.2,0.6,0.2h0.6v0.9h-5.5v-0.9h0.6
		c0.3,0,0.6-0.1,0.7-0.2c0.1-0.1,0.2-0.4,0.2-0.8V105c0-0.3-0.1-0.6-0.3-0.8c-0.2-0.2-0.5-0.3-0.8-0.3h-0.4V103z M435.7,97.8
		c0.4,0,0.8,0.1,1.1,0.5c0.3,0.3,0.5,0.7,0.5,1.1c0,0.4-0.2,0.8-0.5,1.1c-0.3,0.3-0.7,0.5-1.1,0.5c-0.4,0-0.8-0.2-1.1-0.5
		c-0.3-0.3-0.5-0.7-0.5-1.1c0-0.4,0.2-0.8,0.5-1.1C434.9,97.9,435.2,97.8,435.7,97.8"/>
	<path class="st0" d="M450.3,107.9c-2.4-0.2-3.6-1.1-3.6-2.5c0-0.7,0.3-1.2,0.8-1.7c0.5-0.5,1.6-0.7,3.1-0.7h5.9v0.9h-0.6
		c-0.5,0-0.8,0.2-0.8,0.7v6c0,0.4,0.3,0.7,0.8,0.7h0.6v0.9H451v-0.9h0.6c0.5,0,0.8-0.2,0.8-0.7v-2.5H452c-1.1,0-1.7,0.5-2,1.6
		l-0.3,1.1c-0.2,0.7-0.4,1.1-0.8,1.3c-0.3,0.2-0.8,0.3-1.3,0.3c-0.7,0-1.2-0.2-1.6-0.5c-0.4-0.3-0.7-0.9-0.8-1.9h0.7
		c0.1,0.5,0.2,0.9,0.3,1c0.1,0.1,0.2,0.2,0.3,0.2c0.1,0,0.2,0,0.3-0.1c0.1-0.1,0.2-0.3,0.3-0.7l0.3-1c0.2-0.5,0.4-0.8,0.8-1.1
		C448.7,108.2,449.4,108,450.3,107.9 M452.4,107.2v-2.4c0-0.3,0-0.5-0.1-0.6c-0.1-0.1-0.3-0.2-0.7-0.2h-0.5c-1.2,0-1.8,0.6-1.8,1.7
		c0,0.4,0.1,0.7,0.2,0.9c0.2,0.2,0.3,0.4,0.6,0.5c0.2,0.1,0.6,0.1,1.2,0.1H452.4z"/>
</g>
</svg>
